<svg xmlns="http://www.w3.org/2000/svg" width="22" height="31" viewBox="0 0 22 31">
  <defs>
    <style>
      .cls-1 {
        stroke: #000;
        stroke-linejoin: round;
        stroke-width: 1px;
        fill-rule: evenodd;
      }
    </style>
  </defs>
  <path id="Shape_1_copy" data-name="Shape 1 copy" class="cls-1" d="M1704.65,295.139v-0.006a7.425,7.425,0,0,0,5.21-2.1,6.925,6.925,0,0,0,2.14-4.99,6.787,6.787,0,0,0-2.14-4.935,7.729,7.729,0,0,0-5.2-2.11h-5.35a0.408,0.408,0,0,0-.41.394V294.35h-2.49a0.395,0.395,0,1,0,0,.789h2.49v3.294h-2.49a0.4,0.4,0,1,0,0,.79h2.49v6.382a0.416,0.416,0,0,0,.83,0v-6.382h8.52a0.4,0.4,0,1,0,0-.79h-8.52v-3.294h4.92Zm-4.92-13.355h4.92a6.282,6.282,0,1,1,0,12.555h-4.92V281.784Zm4.92,13.355v-0.006a7.425,7.425,0,0,0,5.21-2.1,6.925,6.925,0,0,0,2.14-4.99,6.787,6.787,0,0,0-2.14-4.935,7.729,7.729,0,0,0-5.2-2.11h-5.35a0.408,0.408,0,0,0-.41.394V294.35h-2.49a0.395,0.395,0,1,0,0,.789h2.49v3.294h-2.49a0.4,0.4,0,1,0,0,.79h2.49v6.382a0.416,0.416,0,0,0,.83,0v-6.382h8.52a0.4,0.4,0,1,0,0-.79h-8.52v-3.294h4.92Zm-4.92-13.355h4.92a6.282,6.282,0,1,1,0,12.555h-4.92V281.784Z" transform="translate(-1693 -278)"/>
</svg>
